<?xml version="1.0" encoding="utf-8"?>
<!-- Generator: Adobe Illustrator 27.9.0, SVG Export Plug-In . SVG Version: 6.00 Build 0)  -->
<svg version="1.1" id="Laag_1" xmlns="http://www.w3.org/2000/svg" xmlns:xlink="http://www.w3.org/1999/xlink" x="0px" y="0px"
	 viewBox="0 0 595.28 841.89" style="enable-background:new 0 0 595.28 841.89;" xml:space="preserve">
<style type="text/css">
	.st0{fill:#020203;stroke:#020203;stroke-miterlimit:10;}
	.st1{fill:#FFFFFF;stroke:#FFFFFF;stroke-miterlimit:10;}
</style>
<g>
	<path class="st0" d="M334.92,266.88c-76.66-26.18-127.14,6.54-151.27,34.59c-18.99,22.07-46.74,104.7-37.39,190.71
		c9.35,86,21.5,146.77,87.87,162.66s48.61-81.33,48.61-81.33l11.98-0.56c0,9.48,1.39,18.92,4.24,27.97
		c7.63,24.24,26.51,67.16,64.18,65.14c52.35-2.8,71.05-54.22,73.85-162.66C439.8,394.95,411.58,293.05,334.92,266.88z
		 M303.05,530.97c-5.16,8.94-15.04,12.88-27.11,5.91c-12.07-6.97-17.67-19.87-12.51-28.81c5.16-8.94,16.33-10.24,28.4-3.27
		C303.9,511.77,308.21,522.03,303.05,530.97z"/>
	<path class="st1" d="M312.66,284.7c0,0,66.18,9.03,65.5,49.32c-0.03,1.51-0.47,3.04-1.5,4.29c-1.09,1.32-2.85,2.52-5.5,1.76
		c-2.03-0.58-3.47-2.1-3.95-3.89C364.92,327.62,353.54,294.68,312.66,284.7z"/>
	<path class="st1" d="M275.02,550.75c0,0-30.96-8.54-28.74-31.72c0.08-0.87,0.37-1.73,0.91-2.39c0.58-0.71,1.47-1.31,2.69-0.74
		c0.93,0.44,1.55,1.39,1.69,2.44C252.27,523.39,256.11,542.94,275.02,550.75z"/>
</g>
</svg>
