<?xml version="1.0" encoding="utf-8"?>
<!-- Generator: Adobe Illustrator 27.9.0, SVG Export Plug-In . SVG Version: 6.00 Build 0)  -->
<svg version="1.1" id="Laag_1" xmlns="http://www.w3.org/2000/svg" xmlns:xlink="http://www.w3.org/1999/xlink" x="0px" y="0px"
	 viewBox="0 0 595.28 841.89" style="enable-background:new 0 0 595.28 841.89;" xml:space="preserve">
<style type="text/css">
	.st0{fill:#020203;stroke:#020203;stroke-miterlimit:10;}
	.st1{fill:#FFFFFF;stroke:#FFFFFF;stroke-miterlimit:10;}
</style>
<g>
	<path class="st0" d="M324.98,267.67c-76.66-26.18-110.31-5.61-134.44,22.44c-18.99,22.07-46.74,104.7-37.39,190.71
		s21.5,146.77,87.87,162.66c66.37,15.89,48.61-81.33,48.61-81.33l11.98-0.56c0,9.48,1.39,18.92,4.24,27.97
		c7.63,24.24,26.51,67.16,64.18,65.14c52.35-2.8,71.05-54.22,73.85-162.66S401.64,293.84,324.98,267.67z M309.93,519.61
		c-5.16,8.94-15.04,12.88-27.11,5.91s-17.67-19.87-12.51-28.81c5.16-8.94,16.33-10.24,28.4-3.27
		C310.78,500.41,315.09,510.67,309.93,519.61z"/>
	<path class="st1" d="M297.37,295.46c0,0,66.52-6.03,74.89,33.39c0.31,1.48,0.22,3.06-0.5,4.51c-0.76,1.53-2.22,3.09-4.97,2.95
		c-2.1-0.11-3.85-1.27-4.72-2.91C357.91,325.58,339.45,296.03,297.37,295.46z"/>
	<path class="st1" d="M276.16,535.25c0,0-29.84-11.88-25.09-34.67c0.18-0.86,0.55-1.68,1.17-2.28c0.65-0.64,1.61-1.14,2.76-0.44
		c0.88,0.54,1.39,1.55,1.41,2.61C256.53,505.56,258.21,525.41,276.16,535.25z"/>
</g>
</svg>
