<?xml version="1.0" encoding="utf-8"?>
<!-- Generator: Adobe Illustrator 28.0.0, SVG Export Plug-In . SVG Version: 6.00 Build 0)  -->
<svg version="1.1" id="Laag_1" xmlns="http://www.w3.org/2000/svg" xmlns:xlink="http://www.w3.org/1999/xlink" x="0px" y="0px"
	 viewBox="0 0 768 1024" style="enable-background:new 0 0 768 1024;" xml:space="preserve">
<style type="text/css">
	.st0{fill:#FF0000;}
</style>
<g>
	<path class="st0" d="M7,608.5c0,0,0,374.4,374.4,374.4c0,0,336.5,31.2,386.6-374.4c0,0-168.2,0-261.9,109.2
		s-96.9,146.1-118.7,244.6c0,0-44.6-173.9-99.7-229C241,686.5,194.2,624.1,7,608.5z"/>
	<path class="st0" d="M609,390.1c31.8-19.1,53.2-53.8,53.2-93.6c0-60.3-48.9-109.2-109.2-109.2c-23.3,0-44.9,7.4-62.6,19.8
		c0-1.4,0.2-2.8,0.2-4.2c0-60.3-48.9-109.2-109.2-109.2c-58.7,0-106.4,46.3-108.9,104.4c-14.3-6.8-30.2-10.8-47-10.8
		c-60.3,0-109.2,48.9-109.2,109.2c0,39.8,21.4,74.5,53.2,93.6c-31.8,19.1-53.2,53.8-53.2,93.6c0,60.3,48.9,109.2,109.2,109.2
		c16.9,0,32.8-3.9,47-10.8c2.5,58,50.3,104.4,109,104.4c60.3,0,109.2-48.9,109.2-109.2c0-1.4-0.2-2.8-0.2-4.2
		c17.7,12.5,39.3,19.8,62.6,19.8c60.3,0,109.2-48.9,109.2-109.2C662.1,443.9,640.8,409.2,609,390.1z M443.9,485.7
		c0,0.7,0.1,1.5,0.1,2.2c-0.7-0.5-1.4-0.8-2.1-1.3c-15.9,8-33.7,12.6-52.7,12.6c-64.6,0-117-52.4-117-117s52.4-117,117-117
		s117,52.4,117,117C506.1,427.2,480.9,466.1,443.9,485.7z"/>
</g>
</svg>
