<?xml version="1.0" encoding="utf-8"?>
<!-- Generator: Adobe Illustrator 27.9.0, SVG Export Plug-In . SVG Version: 6.00 Build 0)  -->
<svg version="1.1" id="Laag_1" xmlns="http://www.w3.org/2000/svg" xmlns:xlink="http://www.w3.org/1999/xlink" x="0px" y="0px"
	 viewBox="0 0 768 1024" style="enable-background:new 0 0 768 1024;" xml:space="preserve">
<style type="text/css">
	.st0{fill:#F8D8DD;}
</style>
<g>
	<path class="st0" d="M7,608.51c0,0,0,374.37,374.37,374.37c0,0,336.51,31.2,386.64-374.37c0,0-168.25,0-261.85,109.19
		S409.23,863.78,387.5,962.33c0,0-44.58-173.88-99.73-229.03C240.98,686.5,194.18,624.11,7,608.51z"/>
	<path class="st0" d="M608.98,390.13c31.81-19.08,53.16-53.8,53.16-93.59c0-60.3-48.89-109.19-109.19-109.19
		c-23.31,0-44.87,7.37-62.61,19.81c0.05-1.41,0.21-2.79,0.21-4.21c0-60.3-48.89-109.19-109.19-109.19
		c-58.67,0-106.4,46.31-108.95,104.36c-14.26-6.83-30.17-10.77-47.04-10.77c-60.3,0-109.19,48.89-109.19,109.19
		c0,39.79,21.35,74.51,53.16,93.59c-31.81,19.08-53.16,53.8-53.16,93.59c0,60.3,48.89,109.19,109.19,109.19
		c16.87,0,32.78-3.94,47.04-10.77c2.55,58.04,50.27,104.36,108.95,104.36c60.3,0,109.19-48.89,109.19-109.19
		c0-1.42-0.16-2.8-0.21-4.21c17.74,12.45,39.29,19.81,62.61,19.81c60.3,0,109.19-48.89,109.19-109.19
		C662.14,443.93,640.78,409.21,608.98,390.13z M443.86,485.72c0.05,0.74,0.08,1.48,0.11,2.22c-0.67-0.47-1.43-0.8-2.11-1.26
		c-15.85,8.02-33.72,12.64-52.7,12.64c-64.61,0-116.99-52.38-116.99-116.99s52.38-116.99,116.99-116.99s116.99,52.38,116.99,116.99
		C506.15,427.17,480.9,466.08,443.86,485.72z"/>
</g>
</svg>
