<?xml version="1.0" encoding="utf-8"?>
<!-- Generator: Adobe Illustrator 27.9.0, SVG Export Plug-In . SVG Version: 6.00 Build 0)  -->
<svg version="1.1" id="Laag_1" xmlns="http://www.w3.org/2000/svg" xmlns:xlink="http://www.w3.org/1999/xlink" x="0px" y="0px"
	 viewBox="0 0 595.28 841.89" style="enable-background:new 0 0 595.28 841.89;" xml:space="preserve">
<style type="text/css">
	.st0{fill:#020203;}
	.st1{fill:#FFFFFF;stroke:#FFFFFF;stroke-miterlimit:10;}
</style>
<g>
	<g>
		<path class="st0" d="M442.16,543.38c-17.76-67.61-77.59-81.13-77.59-81.13l4.67-3.86c29.91-13.52,40.2-34.77,45.81-44.25
			s15.89-67.79-14.96-115.19s-96.29-48.22-119.66-48.22s-132.75-5.8-132.75,169.03s46.74,223.12,103.77,229.88
			c57.02,6.76,44.87-127.49,44.87-127.49s13.09,49.26,29.91,85s64.5,43.46,84.13,33.81C430.01,631.27,459.93,610.99,442.16,543.38z
			 M308.43,467.79c-5.16,8.94-15.04,12.88-27.11,5.91c-12.07-6.97-17.67-19.87-12.51-28.81c5.16-8.94,16.33-10.24,28.4-3.27
			C309.29,448.58,313.6,458.85,308.43,467.79z"/>
		<path class="st1" d="M286.01,275.22c0,0,67.16-4.79,76.7,38.64c0.36,1.63,0.31,3.36-0.38,4.93c-0.73,1.66-2.16,3.33-4.95,3.09
			c-2.13-0.18-3.93-1.5-4.86-3.31C348.11,309.88,328.61,276.99,286.01,275.22z"/>
	</g>
	<path class="st1" d="M257.53,464.31c0,0-14.12-27.08,6.64-37.62c0.78-0.4,1.65-0.62,2.51-0.51c0.91,0.11,1.89,0.54,2.06,1.88
		c0.13,1.02-0.34,2.05-1.16,2.73C263.7,434.07,253.99,444.15,257.53,464.31z"/>
</g>
</svg>
