<?xml version="1.0" encoding="utf-8"?>
<!-- Generator: Adobe Illustrator 27.9.0, SVG Export Plug-In . SVG Version: 6.00 Build 0)  -->
<svg version="1.1" id="Laag_1" xmlns="http://www.w3.org/2000/svg" xmlns:xlink="http://www.w3.org/1999/xlink" x="0px" y="0px"
	 viewBox="0 0 595.28 841.89" style="enable-background:new 0 0 595.28 841.89;" xml:space="preserve">
<style type="text/css">
	.st0{fill:#020203;}
	.st1{fill:#FFFFFF;stroke:#FFFFFF;stroke-miterlimit:10;}
</style>
<g>
	<path class="st0" d="M254.62,420.74c0,0-103.8,14.95-115.24-43.93c-0.18-0.92-0.35-1.83-0.51-2.74c-8.94-49.23,16.22-98.31,58-114
		c19.39-7.28,42.88-12.92,67.86-11.92c27.72,1.12,78.1,5.64,106.98,31.18c25.43,22.49,29.91,38.13,29.91,67.19
		c0,19.33-2.8,43.26-13.78,67.68c-24.28,54-78.14,105.06-78.14,105.06s85.58-12.21,111.25,0c47.05,22.38,49.44,96.82,7.76,122.99
		c-28.88,18.13-95.01,21.46-132.93,21.79c-27.2,0.24-54.28-4.74-79.89-15.24c-28-11.47-51.46-31.1-56.9-59.83
		C152.46,554.39,167.99,472.14,254.62,420.74z"/>
	<path class="st1" d="M376.09,525.59c0,0,66.18,8.89,65.5,48.56c-0.03,1.49-0.47,2.99-1.5,4.22c-1.09,1.3-2.85,2.48-5.5,1.73
		c-2.03-0.57-3.47-2.07-3.95-3.83C428.35,567.85,416.97,535.42,376.09,525.59z"/>
	<path class="st1" d="M198.93,618.9c0,0-28.5-14.57-21.5-36.43c0.26-0.82,0.72-1.59,1.39-2.12c0.71-0.56,1.71-0.96,2.79-0.16
		c0.82,0.61,1.22,1.65,1.14,2.7C182.37,587.89,182.05,607.5,198.93,618.9z"/>
	<path class="st1" d="M158.36,330.66c0,0,20.33-62.64,59.9-55.12c1.49,0.28,2.91,0.97,3.96,2.18c1.11,1.28,1.99,3.2,0.78,5.64
		c-0.92,1.87-2.67,3.01-4.52,3.17C209.67,287.3,175.26,292.72,158.36,330.66z"/>
</g>
</svg>
